<svg xmlns="http://www.w3.org/2000/svg" version="1.1" xmlns:xlink="http://www.w3.org/1999/xlink" xmlns:svgjs="http://svgjs.com/svgjs" width="1440" height="600" preserveAspectRatio="none" viewBox="0 0 1440 600"><g mask="url(&quot;#SvgjsMask1139&quot;)" fill="none"><path d="M -49.89914455618563,371 C -13.9,342.4 58.1,200.4 130.10085544381437,228 C 202.1,255.6 238.1,505 310.10085544381434,509 C 382.1,513 418.1,271.6 490.10085544381434,248 C 562.1,224.4 598.1,406.8 670.1008554438143,391 C 742.1,375.2 778.1,172.6 850.1008554438143,169 C 922.1,165.4 958.1,359.4 1030.1008554438145,373 C 1102.1,386.6 1138.1,245.6 1210.1008554438145,237 C 1282.1,228.4 1318.1,329.6 1390.1008554438145,330 C 1462.1,330.4 1560.12,243.4 1570.1008554438145,239 C 1580.08,234.6 1466.02,294.2 1440,308" stroke="rgba(245, 208, 1, 1)" stroke-width="2"></path><path d="M -168.00317951951357,381 C -132,332.2 -60,110.6 11.996820480486443,137 C 84,163.4 120,483.6 191.99682048048643,513 C 264,542.4 300,322.4 371.99682048048646,284 C 444,245.6 480,323.2 551.9968204804865,321 C 624,318.8 660,235 731.9968204804865,273 C 804,311 840,543.6 911.9968204804865,511 C 984,478.4 1020,134.4 1091.9968204804863,110 C 1164,85.6 1200,367.4 1271.9968204804863,389 C 1344,410.6 1418.4,193.2 1451.9968204804863,218 C 1485.6,242.8 1442.4,454 1440,513" stroke="rgba(245, 208, 1, 1)" stroke-width="2"></path><path d="M -334.5496346027543,233 C -298.55,263.6 -226.55,397.2 -154.5496346027543,386 C -82.55,374.8 -46.55,179 25.45036539724569,177 C 97.45,175 133.45,355.2 205.4503653972457,376 C 277.45,396.8 313.45,287.8 385.4503653972457,281 C 457.45,274.2 493.45,352.4 565.4503653972457,342 C 637.45,331.6 673.45,235.4 745.4503653972457,229 C 817.45,222.6 853.45,319.2 925.4503653972457,310 C 997.45,300.8 1033.45,180.4 1105.4503653972456,183 C 1177.45,185.6 1218.54,308.2 1285.4503653972456,323 C 1352.36,337.8 1409.09,270.2 1440,257" stroke="rgba(126, 67, 180, 1)" stroke-width="2"></path><path d="M -178.37829827364618,306 C -142.38,271.2 -70.38,104.6 1.6217017263538125,132 C 73.62,159.4 109.62,424.6 181.62170172635382,443 C 253.62,461.4 289.62,244 361.6217017263538,224 C 433.62,204 469.62,354.6 541.6217017263538,343 C 613.62,331.4 649.62,142.6 721.6217017263538,166 C 793.62,189.4 829.62,451.4 901.6217017263538,460 C 973.62,468.6 1009.62,219 1081.6217017263539,209 C 1153.62,199 1189.62,420.4 1261.6217017263539,410 C 1333.62,399.6 1405.95,158.6 1441.6217017263539,157 C 1477.3,155.4 1440.32,353 1440,402" stroke="rgba(126, 67, 180, 1)" stroke-width="2"></path><path d="M -128.94965113424274,308 C -92.95,281.4 -20.95,170.2 51.05034886575727,175 C 123.05,179.8 159.05,327.2 231.05034886575726,332 C 303.05,336.8 339.05,182.4 411.05034886575726,199 C 483.05,215.6 519.05,404.8 591.0503488657573,415 C 663.05,425.2 699.05,249 771.0503488657573,250 C 843.05,251 879.05,430.6 951.0503488657573,420 C 1023.05,409.4 1059.05,180 1131.0503488657573,197 C 1203.05,214 1239.05,505 1311.0503488657573,505 C 1383.05,505 1465.26,236.2 1491.0503488657573,197 C 1516.84,157.8 1450.21,286.6 1440,309" stroke="rgba(126, 67, 180, 1)" stroke-width="2"></path><path d="M -143.05320470790116,122 C -107.05,173.4 -35.05,359.2 36.94679529209885,379 C 108.95,398.8 144.95,221.4 216.94679529209884,221 C 288.95,220.6 324.95,365.2 396.94679529209884,377 C 468.95,388.8 504.95,277 576.9467952920988,280 C 648.95,283 684.95,432.4 756.9467952920988,392 C 828.95,351.6 864.95,72.6 936.9467952920988,78 C 1008.95,83.4 1044.95,392.6 1116.9467952920988,419 C 1188.95,445.4 1224.95,223.2 1296.9467952920988,210 C 1368.95,196.8 1448.34,343.8 1476.9467952920988,353 C 1505.56,362.2 1447.39,275.4 1440,256" stroke="rgba(245, 208, 1, 1)" stroke-width="2"></path></g><defs><mask id="SvgjsMask1139"><rect width="1440" height="600" fill="#ffffff"></rect></mask></defs></svg>